<svg width="24" height="24" viewBox="0 0 24 24" fill="none" xmlns="http://www.w3.org/2000/svg">
<path d="M13.9999 1H9.99992C9.44992 1 8.99992 1.45 8.99992 2C8.99992 2.55 9.44992 3 9.99992 3H13.9999C14.5499 3 14.9999 2.55 14.9999 2C14.9999 1.45 14.5499 1 13.9999 1ZM11.9999 14C12.5499 14 12.9999 13.55 12.9999 13V9C12.9999 8.45 12.5499 8 11.9999 8C11.4499 8 10.9999 8.45 10.9999 9V13C10.9999 13.55 11.4499 14 11.9999 14ZM19.0299 7.39L19.7799 6.64C20.1599 6.26 20.1699 5.63 19.7799 5.24L19.7699 5.23C19.3799 4.84 18.7599 4.85 18.3699 5.23L17.6199 5.98C16.0699 4.74 14.1199 4 11.9999 4C7.19992 4 3.11992 7.96 2.99992 12.76C2.86992 17.84 6.93992 22 11.9999 22C16.9799 22 20.9999 17.97 20.9999 13C20.9999 10.88 20.2599 8.93 19.0299 7.39ZM11.9999 20C8.12992 20 4.99992 16.87 4.99992 13C4.99992 9.13 8.12992 6 11.9999 6C15.8699 6 18.9999 9.13 18.9999 13C18.9999 16.87 15.8699 20 11.9999 20Z" fill="#00537A" stroke="#00537A"/>
</svg>
